HIERARCHY
ROOT Hips
{
  OFFSET 0 0 0
  CHANNELS 6 Xposition Yposition Zposition Zrotation Yrotation Xrotation
  JOINT LeftThigh
  {
    OFFSET 8.409438 0 -5.917753
    CHANNELS 3 Zrotation Yrotation Xrotation
    JOINT LeftLeg
    {
      OFFSET 0 0 -42.358652
      CHANNELS 3 Zrotation Yrotation Xrotation
      JOINT LeftFoot
      {
        OFFSET 0 0 -39.357303
        CHANNELS 3 Zrotation Yrotation Xrotation
      }
    }
  }
  JOINT RightThigh
  {
    OFFSET -8.409438 0 -5.917753
    CHANNELS 3 Zrotation Yrotation Xrotation
    JOINT RightLeg
    {
      OFFSET 0 0 -42.358652
      CHANNELS 3 Zrotation Yrotation Xrotation
      JOINT RightFoot
      {
        OFFSET 0 0 -39.357303
        CHANNELS 3 Zrotation Yrotation Xrotation
      }
    }
  }
  JOINT SpineLow
  {
    OFFSET 0 0 4.719101
    CHANNELS 3 Zrotation Yrotation Xrotation
    JOINT SpineMid
    {
      OFFSET 0 0 12.899191
      CHANNELS 3 Zrotation Yrotation Xrotation
      JOINT Chest
      {
        OFFSET 0 0 12.899191
        CHANNELS 3 Zrotation Yrotation Xrotation
        JOINT LeftShoulder
        {
          OFFSET 7.550562 1.41573 9.438202
          CHANNELS 3 Zrotation Yrotation Xrotation
          JOINT LeftArm
          {
            OFFSET 9.155056 0 4.247191
            CHANNELS 3 Zrotation Yrotation Xrotation
            JOINT LeftForearm
            {
              OFFSET 0 0 25.771955
              CHANNELS 3 Zrotation Yrotation Xrotation
              JOINT LeftHand
              {
                OFFSET 0 0 25.197169
                CHANNELS 3 Zrotation Yrotation Xrotation
              }
            }
          }
        }
        JOINT RightShoulder
        {
          OFFSET -7.550562 1.41573 9.438202
          CHANNELS 3 Zrotation Yrotation Xrotation
          JOINT RightArm
          {
            OFFSET -9.155056 0 4.247191
            CHANNELS 3 Zrotation Yrotation Xrotation
            JOINT RightForearm
            {
              OFFSET 0 0 -25.771955
              CHANNELS 3 Zrotation Yrotation Xrotation
              JOINT RightHand
              {
                OFFSET 0 0 -25.197169
                CHANNELS 3 Zrotation Yrotation Xrotation
              }
            }
          }
        }
        JOINT Neck
        {
          OFFSET 0 0 15.101124
          CHANNELS 3 Zrotation Yrotation Xrotation
          JOINT Head
          {
            OFFSET 0 0 11.325843
            CHANNELS 3 Zrotation Yrotation Xrotation
            End Site
            {
              OFFSET 0 0 14.157303
            }
          }
        }
      }
    }
  }
}
MOTION
Frames: 14
Frame Time: 0.0
0.0  101.685394  0.0  -1.765858  4.402491  -99.964058  8.267303  -23.230736  0.413819  -0.903166  13.999664  28.656517  4.460096  3.943311  4.104298  -13.388717  10.059987  -2.280948  1.109793  2.857594  21.310311  -1.558174  1.757859  -0.978264  -3.216853  1.053636  2.674706  -8.670335  3.225438  7.161276  -8.670336  3.225438  7.161276  -15.86698  26.082231  9.852309  175.584871  65.912722  -162.950453  18.884018  -7.657081  7.657732  72.194249  -4.405808  -5.785679  13.488522  -7.357295  15.907465  49.030694  12.312108  32.559367  -3.97398  -31.481096  -106.353497  60.208994  16.873134  -2.502628  14.323388  -1.471868  1.370638  10.745312  -1.072475  1.063128  
0.0  101.685394  0.0  -1.773593  4.473689  -100.010352  8.581358  -23.321861  0.443689  -1.203435  14.037012  28.531843  4.377469  3.935763  4.096095  -13.475405  10.061221  -2.197161  1.123794  2.885405  21.306261  -1.50481  1.769926  -0.949396  -3.23075  1.044159  2.670719  -8.709457  3.200577  7.150847  -8.709457  3.200577  7.150846  -15.797709  26.12829  9.834493  176.065641  65.894584  -162.516227  18.890295  -7.702622  7.727902  72.202795  -4.415118  -5.725102  13.48716  -7.313073  15.915644  48.868822  12.374117  32.503567  -3.892803  -31.330192  -106.279315  60.365436  16.658972  -2.363275  14.320063  -1.425146  1.401827  10.742827  -1.036686  1.085433  
0.0  101.685394  0.0  -1.746724  4.5926  -100.025964  8.683596  -23.368975  0.406765  -1.391045  14.08636  28.458141  4.343644  3.945273  4.12336  -13.458937  10.108368  -2.093527  1.169105  2.878014  21.320965  -1.595351  1.75098  -0.95725  -3.248409  1.049008  2.669859  -8.757258  3.215554  7.146971  -8.757259  3.215554  7.14697  -15.644229  26.143097  9.781633  177.409027  65.720498  -161.536065  19.379363  -7.974331  8.103696  72.254145  -4.386616  -5.678595  13.377078  -7.33564  15.840726  48.878062  12.376453  32.483692  -4.0192  -31.101172  -106.161522  60.564779  16.308332  -2.215099  14.334769  -1.416208  1.412637  10.753869  -1.029692  1.093371  
0.0  101.685394  0.0  -1.741975  4.605394  -100.0562  8.88601  -23.445729  0.42116  -1.522782  14.126717  28.404866  4.26893  3.93435  4.125668  -13.55982  10.139997  -2.032257  1.203557  2.877881  21.312022  -1.518922  1.75624  -0.945768  -3.250104  1.046298  2.672692  -8.762013  3.208722  7.154956  -8.762013  3.208722  7.154957  -15.579232  26.11262  9.69331  178.295661  65.636904  -160.754091  19.665454  -8.155019  8.320051  72.33295  -4.345417  -5.6096  13.384236  -7.340984  15.809332  48.821804  12.461482  32.428175  -4.156799  -30.787335  -105.961702  60.78229  15.977526  -2.037927  14.317881  -1.388063  1.394937  10.741118  -1.009022  1.079389  
0.0  101.685394  0.0  -1.693261  4.635959  -100.042482  8.773632  -23.419537  0.314332  -1.448418  14.149013  28.470151  4.256399  3.938316  4.16318  -13.608114  10.204009  -2.008183  1.214498  2.85861  21.321654  -1.479985  1.75935  -0.947821  -3.243036  1.054383  2.676592  -8.74169  3.230508  7.16496  -8.74169  3.230508  7.16496  -15.546698  26.005897  9.591448  178.588178  65.596627  -160.391497  19.812693  -8.415634  8.516247  72.386559  -4.323628  -5.489758  13.361963  -7.39505  15.723855  48.698213  12.569022  32.34664  -4.436617  -30.382172  -105.774787  60.945498  15.345599  -1.926163  14.310527  -1.386433  1.351987  10.735498  -1.008821  1.047102  
0.0  101.685394  0.0  -1.646338  4.585203  -100.071839  8.773727  -23.434976  0.345377  -1.361834  14.169912  28.512084  4.215138  3.938718  4.176866  -13.65121  10.262945  -1.950539  1.237298  2.868397  21.3129  -1.385523  1.75939  -0.945574  -3.228465  1.058377  2.683656  -8.701111  3.240756  7.184511  -8.701111  3.240756  7.184511  -15.467264  25.919949  9.525635  178.504246  65.510901  -160.378158  19.905291  -8.858483  8.794441  72.422798  -4.341092  -5.273579  13.364986  -7.444132  15.647155  48.658834  12.759325  32.35138  -4.549551  -30.01814  -105.559397  61.164273  14.798653  -1.735329  14.264813  -1.372006  1.284494  10.701036  -0.999667  0.996007  
0.0  101.685394  0.0  -1.561264  4.643509  -100.036525  8.424649  -23.330484  0.265876  -1.092466  14.159489  28.650559  4.24552  3.95906  4.235388  -13.730796  10.345126  -1.944618  1.218072  2.869924  21.310943  -1.340175  1.763774  -0.955835  -3.214314  1.068158  2.686933  -8.661298  3.266315  7.192988  -8.661298  3.266315  7.192987  -15.427517  25.799917  9.477745  178.19562  65.372179  -160.666948  19.972363  -9.526232  9.288676  72.406046  -4.401402  -4.966293  13.265383  -7.549682  15.510368  48.562877  13.017091  32.361311  -5.383234  -29.909715  -105.685972  61.364842  13.093571  -1.872471  14.2161  -1.368089  1.209676  10.664324  -0.998567  0.939655  
0.0  101.685394  0.0  -1.489146  4.630362  -100.076351  8.154692  -23.266601  0.337341  -0.852068  14.162136  28.74477  4.239976  3.953292  4.257117  -13.847196  10.448602  -1.894887  1.254991  2.883307  21.312121  -1.232719  1.757193  -0.958845  -3.207204  1.07359  2.69488  -8.640905  3.281379  7.214389  -8.640905  3.281379  7.214388  -15.275194  25.714966  9.43665  177.373355  65.259745  -161.228438  19.866475  -10.239227  9.681566  72.378645  -4.547374  -4.513795  13.34565  -7.638373  15.404793  48.471905  13.361485  32.418159  -5.428975  -29.581855  -105.453886  61.575191  12.281566  -1.770232  14.168108  -1.345632  1.12463  10.628109  -0.983777  0.875202  
0.0  101.685394  0.0  -1.38994  4.716335  -100.070569  7.792664  -23.148213  0.400741  -0.640936  14.161833  28.80699  4.268466  3.958741  4.285209  -14.000862  10.563239  -1.882503  1.236754  2.894147  21.318663  -1.152256  1.763783  -0.967054  -3.202986  1.078976  2.705517  -8.628273  3.296973  7.242992  -8.628273  3.296973  7.242991  -14.855572  25.71399  9.404297  176.624447  65.092292  -161.744692  19.985794  -11.232261  10.381998  72.251301  -4.767404  -3.931837  13.187078  -7.767989  15.17035  48.464466  13.770099  32.549764  -6.422124  -29.602807  -105.576694  61.889173  10.063946  -2.160567  14.124574  -1.305552  1.032141  10.595211  -0.955912  0.80477  
0.0  101.685394  0.0  -1.309033  4.702881  -100.093002  7.472518  -23.0252  0.454954  -0.454793  14.150323  28.882845  4.341774  3.9586  4.316902  -14.11331  10.664927  -1.862694  1.266724  2.923755  21.332207  -1.038596  1.757362  -0.97302  -3.189859  1.082772  2.72056  -8.591219  3.307831  7.284299  -8.591219  3.307831  7.2843  -14.695342  25.595264  9.291382  175.880303  64.93628  -162.139105  19.870786  -12.106417  10.904713  72.068314  -5.068037  -3.213652  13.331248  -7.898376  15.025477  48.301434  14.291397  32.603219  -6.48142  -29.247836  -105.274404  62.112713  9.010774  -2.242308  14.036794  -1.281301  0.906296  10.529082  -0.940746  0.70958  
0.0  101.685394  0.0  -1.202093  4.783584  -100.090374  7.227554  -22.90345  0.567242  -0.385009  14.161475  28.880029  4.370893  3.953976  4.309046  -14.268829  10.774708  -1.886339  1.236853  2.94204  21.361274  -0.927183  1.781319  -0.98005  -3.164546  1.08427  2.74539  -8.520582  3.312331  7.353272  -8.520583  3.312331  7.353272  -14.476552  25.551779  9.118678  175.524725  64.658625  -162.245325  20.036925  -13.276712  11.697044  71.87393  -5.377616  -2.384545  13.129703  -8.049648  14.755802  48.26476  14.867179  32.698969  -7.676383  -29.279349  -105.274804  61.571269  10.114423  -1.507192  13.918473  -1.258208  0.771613  10.440043  -0.926651  0.607728  
0.0  101.685394  0.0  -1.12608  4.781495  -100.154663  6.928924  -22.774805  0.660865  -0.272306  14.140107  28.926687  4.465938  3.956345  4.339043  -14.325331  10.87428  -1.83155  1.277696  2.963455  21.38017  -0.861298  1.783212  -0.9784  -3.131274  1.084475  2.773266  -8.428173  3.312755  7.431152  -8.428173  3.312755  7.431153  -14.382198  25.445864  8.958623  175.086686  64.48849  -162.300045  19.996548  -14.299394  12.395771  71.731101  -5.711494  -1.520909  13.217548  -8.195897  14.643002  48.098297  15.541104  32.668158  -7.893598  -28.787463  -104.744032  62.101178  8.919377  -1.694777  13.74106  -1.231306  0.625509  10.30667  -0.909959  0.497109  
0.0  101.685394  0.0  -1.022852  4.950408  -100.165328  6.702875  -22.679677  0.805495  -0.225873  14.161922  28.910641  4.391262  3.92237  4.276486  -14.417977  10.977112  -1.817107  1.283633  2.979509  21.406897  -0.901104  1.789243  -0.98546  -3.099311  1.084921  2.795554  -8.339617  3.313209  7.493677  -8.339617  3.313208  7.493677  -14.136726  25.428593  8.846658  174.574616  64.357492  -162.288578  20.122588  -15.451652  13.231628  71.533926  -6.072474  -0.696476  12.945393  -8.354276  14.515419  48.103285  16.281061  32.628511  -8.210918  -28.150467  -104.068288  62.468007  8.400476  -1.698923  13.56727  -1.232202  0.503218  10.176083  -0.913512  0.405002  
0.0  101.685394  0.0  -0.983919  4.890532  -100.318296  6.495109  -22.608193  0.979785  -0.122537  14.118095  28.93976  4.433928  3.927583  4.30825  -14.321748  11.041506  -1.649588  1.33846  2.982776  21.41114  -0.910274  1.796938  -0.98038  -3.050883  1.077077  2.822894  -8.206699  3.289779  7.571854  -8.206699  3.289779  7.571854  -13.94  25.387917  8.785715  174.191758  64.233551  -162.196279  20.130921  -16.56187  14.113094  71.303105  -6.427279  0.051762  13.051198  -8.470803  14.57881  47.963669  17.110945  32.466882  -8.547748  -27.437744  -103.361597  63.196325  6.890359  -2.063144  13.391707  -1.186566  0.396652  10.044196  -0.881733  0.323673  
